<?xml version="1.0" encoding="utf-8"?>
<!DOCTYPE svg PUBLIC "-//W3C//DTD SVG 20010904//EN" "http://www.w3.org/TR/2001/REC-SVG-20010904/DTD/svg10.dtd">
<svg version="1.0" xmlns="http://www.w3.org/2000/svg" width="514pt" height="514pt" viewBox="0 0 514 514" preserveAspectRatio="xMidYMid meet">
<g fill="#FEFEFEFE">
<path d="M 223.00 452.50 L 223.00 408.00 L 188.25 407.86 C 169.14 407.78 128.39 407.44 97.71 407.11 L 41.92 406.50 L 97.96 325.27 C 128.78 280.60 154.00 243.82 154.00 243.54 C 154.00 243.26 141.42 242.91 126.04 242.77 L 98.08 242.50 L 177.09 130.50 C 220.55 68.90 256.51 18.50 257.00 18.50 C 257.49 18.50 293.45 68.90 336.91 130.50 L 415.93 242.50 L 388.08 243.00 L 360.23 243.50 L 416.16 325.00 C 446.95 369.88 471.50 406.59 470.79 406.69 C 470.08 406.80 435.12 407.06 393.10 407.27 L 316.70 407.66 L 317.55 390.08 C 319.32 353.42 317.39 341.99 306.12 322.50 C 300.71 313.14 284.86 296.55 275.50 290.47 C 249.74 273.71 214.36 271.21 186.30 284.16 C 174.81 289.46 161.07 300.64 152.10 312.00 C 146.43 319.17 140.53 329.93 141.65 331.05 C 142.91 332.31 164.82 336.76 179.42 338.72 C 187.67 339.83 198.87 340.34 214.75 340.33 L 238.00 340.32 L 238.00 374.16 L 238.00 408.00 L 265.00 408.00 L 292.00 408.00 L 292.00 452.50 L 292.00 497.00 L 257.50 497.00 L 223.00 497.00 L 223.00 452.50ZM 306.07 261.40 C 323.84 256.19 339.01 240.92 343.61 223.63 C 345.43 216.79 345.36 202.81 343.47 195.54 C 340.12 182.68 330.63 170.49 318.07 162.89 C 302.73 153.62 280.04 153.71 264.44 163.11 C 257.58 167.24 247.44 177.78 243.85 184.53 C 235.35 200.50 236.43 223.59 246.40 238.50 C 253.38 248.94 263.58 256.87 274.97 260.69 C 283.19 263.44 297.98 263.78 306.07 261.40Z"/></g>
</svg>
